<?xml version="1.0" encoding="utf-8"?>
<svg version="1.1" xmlns:xlink="http://www.w3.org/1999/xlink" width="36px" height="50px" xmlns="http://www.w3.org/2000/svg">
  <g transform="matrix(1 0 0 1 -595 -541 )">
    <path d="M 36 9.91646039603961  C 36 10.7312293729373  35.7083333333333 11.4273927392739  35.125 12.0049504950495  L 26 21.039603960396  L 26 46.5346534653465  C 26 47.483498349835  25.65625 48.2982673267327  24.96875 48.9789603960396  C 24.28125 49.6596534653465  23.4583333333333 50  22.5 50  C 21.5416666666667 50  20.71875 49.6596534653465  20.03125 48.9789603960396  C 19.34375 48.2982673267327  19 47.483498349835  19 46.5346534653465  L 19 34.6534653465347  L 17 34.6534653465347  L 17 46.5346534653465  C 17 47.483498349835  16.65625 48.2982673267327  15.96875 48.9789603960396  C 15.28125 49.6596534653465  14.4583333333333 50  13.5 50  C 12.5416666666667 50  11.71875 49.6596534653465  11.03125 48.9789603960396  C 10.34375 48.2982673267327  10 47.483498349835  10 46.5346534653465  L 10 21.039603960396  L 0.875 12.0049504950495  C 0.291666666666667 11.4273927392739  0 10.7260726072607  0 9.9009900990099  C 0 9.07590759075907  0.291666666666667 8.37458745874587  0.875 7.7970297029703  C 1.47916666666667 7.21947194719472  2.19270833333333 6.93069306930693  3.015625 6.93069306930693  C 3.83854166666667 6.93069306930693  4.54166666666667 7.21947194719472  5.125 7.7970297029703  L 12.25 15  L 23.75 15  L 30.875 7.7970297029703  C 31.4583333333333 7.21947194719472  32.1666666666667 6.93069306930693  33 6.93069306930693  C 33.8333333333333 6.93069306930693  34.5416666666667 7.21947194719472  35.125 7.7970297029703  C 35.7083333333333 8.39521452145214  36 9.10169141914191  36 9.91646039603961  Z M 22.953125 2.02660891089109  C 24.3177083333333 3.37768151815181  25 5.01237623762376  25 6.93069306930693  C 25 8.8490099009901  24.3177083333333 10.483704620462  22.953125 11.8347772277228  C 21.5885416666667 13.1858498349835  19.9375 13.8613861386139  18 13.8613861386139  C 16.0625 13.8613861386139  14.4114583333333 13.1858498349835  13.046875 11.8347772277228  C 11.6822916666667 10.483704620462  11 8.8490099009901  11 6.93069306930693  C 11 5.01237623762376  11.6822916666667 3.37768151815181  13.046875 2.02660891089109  C 14.4114583333333 0.675536303630359  16.0625 0  18 0  C 19.9375 0  21.5885416666667 0.675536303630359  22.953125 2.02660891089109  Z " fill-rule="nonzero" fill="#000000" stroke="none" transform="matrix(1 0 0 1 595 541 )" />
  </g>
</svg>